<?xml version="1.0" encoding="UTF-8"?>
<svg xmlns="http://www.w3.org/2000/svg" xmlns:xlink="http://www.w3.org/1999/xlink" width="96px" height="60px" viewBox="0 0 95 60" version="1.1">
<g id="surface1">
<path style=" stroke:none;fill-rule:nonzero;fill:rgb(6.666667%,6.666667%,6.666667%);fill-opacity:1;" d="M 18.832031 11.335938 L 39.101562 11.335938 L 39.101562 3.257812 L 3.054688 3.257812 L 3.054688 5.890625 L 36.21875 5.890625 L 36.21875 8.953125 L 0 8.953125 L 0 0.195312 L 42.15625 0.195312 L 42.15625 14.394531 L 21.882812 14.394531 L 21.882812 54.191406 L 18.832031 54.191406 Z M 13.148438 14.394531 L 0 14.394531 L 0 11.335938 L 16.199219 11.335938 L 16.199219 56.65625 L 24.683594 56.65625 L 24.683594 17.03125 L 27.738281 17.03125 L 27.738281 59.804688 L 13.148438 59.804688 Z M 83.464844 3.339844 L 56.914062 54.023438 L 60.5625 54.023438 L 88.46875 0.28125 L 51.65625 0.28125 L 51.65625 3.339844 Z M 63.445312 54.023438 L 84.480469 54.023438 L 84.480469 50.960938 L 68.535156 50.960938 L 95 0.28125 L 91.523438 0.28125 Z M 87.367188 48.410156 L 87.367188 56.742188 L 52.503906 56.742188 L 79.136719 5.808594 L 51.65625 5.808594 L 51.65625 14.652344 L 68.113281 14.652344 L 69.636719 11.589844 L 54.710938 11.589844 L 54.710938 8.867188 L 74.050781 8.867188 L 47.5 59.804688 L 90.417969 59.804688 L 90.417969 45.347656 L 74.644531 45.347656 L 73.03125 48.410156 Z M 87.367188 48.410156 "/>
</g>
</svg>
